<?xml version="1.0"?>
<svg xmlns="http://www.w3.org/2000/svg" width="512" height="512" viewBox="0 0 128 128"><path d="M64,4.75A59.25,59.25,0,1,0,123.25,64,59.317,59.317,0,0,0,64,4.75Zm0,115A55.821,55.821,0,0,1,8.74,71.27c-.1-1.4-.16-2.831-.16-4.26A52.78,52.78,0,0,1,61.3,14.29a47.329,47.329,0,0,1,47.28,47.27A42.429,42.429,0,0,1,66.2,103.94,38.008,38.008,0,0,1,28.24,65.97,34.029,34.029,0,0,1,62.23,31.98,30.454,30.454,0,0,1,92.65,62.4a27.231,27.231,0,0,1-27.2,27.2A24.332,24.332,0,0,1,41.14,65.3a21.724,21.724,0,0,1,21.7-21.7A19.376,19.376,0,0,1,82.2,62.95,17.264,17.264,0,0,1,64.95,80.19,15.357,15.357,0,0,1,49.61,64.85,13.646,13.646,0,0,1,63.24,51.22a12.109,12.109,0,0,1,12.1,12.09,1.75,1.75,0,0,0,3.5,0,15.613,15.613,0,0,0-15.6-15.59A17.15,17.15,0,0,0,46.11,64.85,18.862,18.862,0,0,0,64.95,83.69,20.768,20.768,0,0,0,85.7,62.95,22.881,22.881,0,0,0,62.84,40.1a25.228,25.228,0,0,0-25.2,25.2A27.836,27.836,0,0,0,65.45,93.1a30.735,30.735,0,0,0,30.7-30.7A33.958,33.958,0,0,0,62.23,28.48,37.533,37.533,0,0,0,24.74,65.97,41.512,41.512,0,0,0,66.2,107.44a45.932,45.932,0,0,0,45.88-45.88A50.832,50.832,0,0,0,61.3,10.79,55.937,55.937,0,0,0,25.779,23.471,55.733,55.733,0,1,1,64,119.75Z"/></svg>
